<svg id="Layer_1" data-name="Layer 1" xmlns="http://www.w3.org/2000/svg" viewBox="0 0 200 200"><defs><style>.cls-1{fill:#fffae1;stroke:#8dc63f;stroke-miterlimit:10;stroke-width:6px;}.cls-2{fill:#8b5e3c;}</style></defs><title>apple</title><path class="cls-1" d="M161.64,26.92C188.23,58.3,176.88,111.64,136.28,146S41.21,182.9,14.61,151.52"/><path class="cls-2" d="M160.25,23a176.2,176.2,0,0,0-50.76,38.73c-3.12,3.45-6.17,7.14-7.65,11.55S100.78,83,104,86.4a19.59,19.59,0,0,0,6.49,4c5.63,2.52,12,5.08,17.77,3a6,6,0,0,1,2.22-.53c1.37.09,2.36,1.29,3.27,2.31,5.46,6.1,13.8,8.54,21.69,10.71,4.92,1.36,10.48,2.64,14.88.06a16.53,16.53,0,0,0,4.77-4.8c15.42-21.37,13.3-53.58-4.77-72.75-2.7-2.86-6.2-5.62-10.11-5.22"/><path class="cls-2" d="M159,20.86a180,180,0,0,0-50.7,38.5c-5.65,6.19-11.59,14-9.28,22.91,2.17,8.4,12.76,12.4,20.44,13.94a20.24,20.24,0,0,0,5.91.37c2-.2,3.85-1.39,5.66-.62,1.46.61,3.41,3.45,4.81,4.49a35.5,35.5,0,0,0,6.59,3.76c7.19,3.21,17.83,7.35,25.79,5.3,7.77-2,12.28-11.27,15.09-18.05a61.34,61.34,0,0,0,4.55-25.36,62.73,62.73,0,0,0-7.24-27.54c-4-7.51-10.9-17.89-20.41-17.84-3.22,0-3.22,5,0,5,7.68,0,13.71,10.57,16.74,16.61a56.54,56.54,0,0,1,5.76,21,58.33,58.33,0,0,1-2.11,20.9c-1.85,6.31-5.49,16.14-11.54,19.64-6.29,3.63-18.32-1.39-24.4-4.09a32.16,32.16,0,0,1-9.62-6.8c-1.95-1.89-3.61-2.76-6.35-2.28-4.66.81-8.24,1-12.8-.71s-10.73-3.75-12-9c-2.15-8.61,6.12-16.2,11.48-21.73a176,176,0,0,1,46.21-34c2.86-1.47.33-5.78-2.53-4.32Z"/></svg>