<svg id="Layer_1" data-name="Layer 1" xmlns="http://www.w3.org/2000/svg" viewBox="0 0 1728 1728"><defs><style>.cls-1{fill:#5ac5f1;}.cls-2{fill:#a4dded;}.cls-3{fill:#74cfec;}.cls-4{fill:#fff;}</style></defs><title>plate</title><circle class="cls-1" cx="865.64" cy="864" r="651.41"/><circle class="cls-2" cx="865.64" cy="864" r="489.05"/><path class="cls-3" d="M1344.7,765.2c5.78,8.58-4.47-20.14-7.16-30C1281,527.58,1091.14,375,865.64,375c-250.91,0-457.69,189-485.8,432.32C379.84,807.27,823.84-7.43,1344.7,765.2Z"/><path class="cls-4" d="M498.26,379.35c3.86-2.89,5.8-4.32,9.7-7.13l41.46,57.57c-3.44,2.48-5.16,3.74-8.56,6.29Zm4.74-3.52c12.85-9.41,26-18.42,39.58-26.79l5,8c-13.34,8.24-26.3,17.11-38.95,26.37Zm18.74,25.47q15.79-11.62,32.35-22.16l5.08,8q-16.27,10.35-31.82,21.79Z"/><path class="cls-4" d="M598.29,395.56a23.8,23.8,0,0,1-12.64-3.31,27.92,27.92,0,0,1-9.88-10.12l-10.26-17.28a25.47,25.47,0,0,1-3.9-13.65A23.27,23.27,0,0,1,566,338.12a36.22,36.22,0,0,1,27.23-14.44,23.13,23.13,0,0,1,13.19,3.78,25.73,25.73,0,0,1,9.06,10.91l8.54,18.2a28.05,28.05,0,0,1,2.85,13.84,23.67,23.67,0,0,1-4.28,12.29,32.24,32.24,0,0,1-24.26,12.86Zm15.38-17.94a14.06,14.06,0,0,0,2.41-7.51,17.59,17.59,0,0,0-2-8.42l-9.2-18.64a16.36,16.36,0,0,0-5.6-6.61,13.92,13.92,0,0,0-7.86-2.33,20.78,20.78,0,0,0-15.87,8.42,14,14,0,0,0-2.52,7.82,16.32,16.32,0,0,0,2.31,8.36l10.26,18.08a17.39,17.39,0,0,0,5.87,6.35,14,14,0,0,0,7.59,2.2,18.69,18.69,0,0,0,14.57-7.72Z"/><path class="cls-4" d="M659,366.24a23.66,23.66,0,0,1-12-4.92,28.4,28.4,0,0,1-8.49-11.3c-3.2-7.38-4.81-11.07-8-18.44a25.71,25.71,0,0,1-2.2-14,23,23,0,0,1,5.82-12.37,35.32,35.32,0,0,1,28.45-10.77A23,23,0,0,1,675,299.86a26.11,26.11,0,0,1,7.6,12l6.2,19.12A28.35,28.35,0,0,1,690,345a23.56,23.56,0,0,1-5.69,11.62A31.32,31.32,0,0,1,659,366.24Zm17.23-15.77a13.87,13.87,0,0,0,3.27-7.12,17.77,17.77,0,0,0-.92-8.59l-6.8-19.64a16.62,16.62,0,0,0-4.72-7.27,13.76,13.76,0,0,0-7.43-3.31A20.31,20.31,0,0,0,643,310.82a13.78,13.78,0,0,0-3.4,7.41,16.46,16.46,0,0,0,1.28,8.57l7.9,19.22a17.69,17.69,0,0,0,5,7.05,14,14,0,0,0,7.18,3.16,18.25,18.25,0,0,0,15.22-5.76Z"/><path class="cls-4" d="M692.68,282.15c4.44-1.29,6.67-1.91,11.13-3.11q9.24,34.24,18.49,68.49c-3.93,1.06-5.9,1.61-9.82,2.75Zm23.92,57.12c6.45-1.78,9.69-2.62,16.18-4.2,5.29-1.29,9.1-3.53,11.46-6.83s3.07-7.36,2-12.2L742,295.61c-1-4.84-3.38-8.26-7.14-10.22s-8.59-2.27-14.39-.85c-7.12,1.73-10.66,2.65-17.73,4.6L700.2,280c7-1.95,10.59-2.87,17.69-4.6a40.18,40.18,0,0,1,17.08-.87A21.87,21.87,0,0,1,747,280.94a25,25,0,0,1,6.11,12.84c1.5,7.89,2.25,11.84,3.76,19.74a27.36,27.36,0,0,1-.68,14.15,22,22,0,0,1-7.62,10.43,36.79,36.79,0,0,1-13.93,6.25c-6.24,1.52-9.35,2.33-15.56,4Z"/><path class="cls-4" d="M766.71,265.61c4.54-.72,6.82-1.05,11.36-1.69q4.9,35.15,9.79,70.27c-4,.56-6,.86-10,1.49Q772.28,300.64,766.71,265.61Zm5.57-.85c15.17-2.1,30.3-3.77,45.56-5l.68,9.44c-15,1.24-29.91,2.88-44.84,4.95ZM776.94,296q18.6-2.77,37.34-4.31c.31,3.77.47,5.66.78,9.43q-18.42,1.52-36.72,4.24Z"/><path class="cls-4" d="M830.74,258.94c4.58-.24,6.87-.33,11.45-.48q1.14,35.46,2.27,70.91c-4,.13-6.07.21-10.11.42Q832.55,294.36,830.74,258.94ZM839,320.1c14-.44,28-.48,42-.12-.13,3.78-.2,5.67-.33,9.46q-20.62-.74-41.26.11C839.25,325.77,839.17,323.88,839,320.1Z"/><path class="cls-4" d="M903.35,328.36a21.46,21.46,0,0,1-8.12-9.62A31.32,31.32,0,0,1,893,304.31q1.28-22.6,2.54-45.2c4.58.25,6.87.4,11.44.75l-3.42,45.49c-.39,5.16.68,9.24,3.15,12.29s6.12,4.78,11,5.29,8.88-.44,11.94-2.91,5-6.25,5.65-11.37q3-22.62,6-45.23c4.55.61,6.82.93,11.37,1.62q-3.42,22.38-6.82,44.76a31.17,31.17,0,0,1-5.17,13.66,21.4,21.4,0,0,1-10,7.74,33.95,33.95,0,0,1-27.4-2.84Z"/><path class="cls-4" d="M971.59,268.22c4.52.84,6.78,1.28,11.29,2.2q-7.11,34.75-14.23,69.5c-4-.81-6-1.2-10-1.94Zm5.48,1c15.43,3,30.78,6.56,45.92,10.79l-2.53,9.12c-15-4-30-7.5-45.19-10.62Zm-5.91,30.41q19.07,3.7,37.86,8.69l-2.43,9.15q-18.47-4.9-37.24-8.54C970.07,305.25,970.43,303.39,971.16,299.67Zm-5.83,29.94c13.88,2.84,27.57,6.06,41.26,9.69l-2.53,9.12c-13.43-3.56-26.88-6.87-40.53-9.52Z"/><path class="cls-4" d="M1038.77,284.64c4,1.23,6,1.87,10,3.17,6.85,21.36,12.71,42.81,17.63,64.7l-1.63.71q10.4-26.06,20.78-52.12c4.28,1.71,6.42,2.58,10.68,4.37q-13.76,32.68-27.5,65.35c-3.48-1.46-5.23-2.18-8.73-3.58-4.67-21.48-10.26-42.53-16.82-63.5l1.65-.8-17.19,52.55c-3.85-1.26-5.78-1.87-9.65-3.06Q1028.38,318.54,1038.77,284.64Z"/><path class="cls-4" d="M1099.91,386s-1.23-1.85-3.78-5.51a23.76,23.76,0,0,1-4.26-12.3,29.12,29.12,0,0,1,2.83-14c3.25-7.08,4.87-10.62,8.11-17.7a26.55,26.55,0,0,1,9-11.15,23.14,23.14,0,0,1,13.09-4.07,32,32,0,0,1,15.12,3.91,31.46,31.46,0,0,1,10.49,8.54,25.89,25.89,0,0,1,5.2,11.36,25.15,25.15,0,0,1-.82,12.3c-4.06-2.36-6.1-3.51-10.19-5.78a14.86,14.86,0,0,0-.27-6.91,16.89,16.89,0,0,0-3.29-6.36,17.91,17.91,0,0,0-5.58-4.53,17.41,17.41,0,0,0-8.83-2.13,14.3,14.3,0,0,0-7.84,2.68,17.94,17.94,0,0,0-5.69,7c-3.38,7-5.08,10.53-8.46,17.54a19.28,19.28,0,0,0-2.07,8.76,14.45,14.45,0,0,0,2.26,7.67,15.91,15.91,0,0,0,6.27,5.51,16.74,16.74,0,0,0,6.33,1.84,15.59,15.59,0,0,0,6.63-.86,15.27,15.27,0,0,0,5.89-3.77c3.88,2.15,5.81,3.24,9.66,5.48a27.66,27.66,0,0,1-9.89,7.09,26.35,26.35,0,0,1-11.54,2,27.71,27.71,0,0,1-11.54-3.18C1102.2,387.14,1099.91,386,1099.91,386Z"/><path class="cls-4" d="M1179.57,348.46c4,2.5,6,3.77,10.06,6.36q-19.23,29.81-38.47,59.61c-3.53-2.29-5.31-3.41-8.88-5.62Zm4.89,3.06c13.8,8.76,27.32,18,40.36,27.83l-5.68,7.57c-12.84-9.69-26.15-18.78-39.73-27.4Zm-16.53,26.2q17.05,10.77,33.34,22.73l-5.6,7.63q-16-11.74-32.79-22.36Zm-16.28,25.79c12.36,8,24.39,16.29,36.26,25l-5.68,7.56c-11.66-8.55-23.49-16.71-35.63-24.57Z"/></svg>