<svg id="Layer_1" data-name="Layer 1" xmlns="http://www.w3.org/2000/svg" viewBox="0 0 95.65431 108.88928">
  <defs>
    <style>
      .cls-1 {
        fill: #8b5e3c;
      }

      .cls-2 {
        fill: #a97c50;
      }
    </style>
  </defs>
  <title>almond</title>
  <path class="cls-1" d="M34.06477,0S-20.5733,30.509,8.54552,60.42C8.54552,60.42,45.44,67.75887,34.06477,0Z"/>
  <path class="cls-2" d="M29.51012,5.90864a163.44371,163.44371,0,0,1-9.38649,22.20888c-1.09854,2.14386,2.136,4.04342,3.238,1.89269A170.13676,170.13676,0,0,0,33.12617,6.90554c.77505-2.29112-2.84561-3.27437-3.61605-.9969Z"/>
  <path class="cls-2" d="M11.0582,23.02359A40.90577,40.90577,0,0,0,3.97709,39.01345c-.48578,2.35536,3.12813,3.36263,3.616.9969a38.26948,38.26948,0,0,1,6.70308-15.09406c1.42613-1.95023-1.82631-3.82321-3.238-1.8927Z"/>
  <path class="cls-2" d="M28.99437,27.264a171.18024,171.18024,0,0,1-12.4037,22.77036c-1.31521,2.03191,1.92979,3.91381,3.238,1.89269a171.17847,171.17847,0,0,0,12.4037-22.77036c.983-2.18287-2.24765-4.092-3.238-1.89269Z"/>
  <path class="cls-2" d="M18.85684,36.93457Q15.90442,44.421,12.2957,51.60687c-.71881,1.43446,1.437,2.70194,2.15867,1.2618q3.74975-7.48295,6.81316-15.2695c.59039-1.49706-1.82628-2.1465-2.41069-.6646Z"/>
  <path class="cls-2" d="M29.81048,37.58278l-4.25321,10.07c-.61863,1.46469,1.53415,2.74045,2.15867,1.2618l4.25321-10.07c.61863-1.46468-1.53415-2.74044-2.15867-1.26179Z"/>
  <path class="cls-2" d="M20.42614,15.59971l-6.4875,15.30187c-1.599,3.77154-3.28365,7.36763-3.37276,11.52841a1.25076,1.25076,0,0,0,2.5,0c.10565-4.93312,2.67409-9.42375,4.55791-13.867l4.961-11.70143c.62076-1.46419-1.53207-2.73977-2.15868-1.2618Z"/>
  <path class="cls-1" d="M61.28562,11.82769S45.57981,72.40362,87.32225,72.02652C87.32225,72.02652,118.12287,50.43062,61.28562,11.82769Z"/>
  <path class="cls-2" d="M62.39962,19.187a163.44728,163.44728,0,0,1,9.5702,22.13035c.787,2.26555,4.41091,1.29139,3.616-.9969a170.13179,170.13179,0,0,0-9.94823-23.02615c-1.11836-2.13955-4.35587-.24589-3.238,1.8927Z"/>
  <path class="cls-2" d="M62.02321,44.34966a40.90477,40.90477,0,0,0,6.66,16.16985c1.36255,1.9727,4.6142.09975,3.238-1.8927a38.27823,38.27823,0,0,1-6.282-15.274c-.42292-2.37188-4.03751-1.3668-3.616.9969Z"/>
  <path class="cls-2" d="M77.483,34.31566a172.73851,172.73851,0,0,1,7.88688,24.701c.5596,2.34645,4.17646,1.353,3.61605-.9969a172.73628,172.73628,0,0,0-7.88689-24.701c-.89258-2.209-4.52143-1.24377-3.616.99689Z"/>
  <path class="cls-2" d="M77.46638,48.3331Q80.8355,55.641,83.54022,63.21369c.538,1.5039,2.95452.85559,2.4107-.6646q-2.81961-7.88186-6.32586-15.47779c-.67284-1.45945-2.82838-.19084-2.15868,1.2618Z"/>
  <path class="cls-2" d="M85.6332,41.16114l4.33944,10.03315c.637,1.47269,2.79138.201,2.15868-1.2618L87.79188,39.89935c-.637-1.4727-2.79137-.201-2.15868,1.26179Z"/>
  <path class="cls-2" d="M63.25869,32.75271l6.577,15.26359c1.579,3.6645,2.95272,7.27574,5.8594,10.09824,1.15486,1.12142,2.92457-.64447,1.76776-1.76777-3.1573-3.06586-4.53656-7.42951-6.24226-11.388L65.41736,31.49091c-.63488-1.4734-2.78924-.20158-2.15867,1.2618Z"/>
  <path class="cls-1" d="M47.83733,43.70648s-43.70415,44.7891-7.28067,65.1828C40.55666,108.88928,78.01472,105.43155,47.83733,43.70648Z"/>
  <path class="cls-2" d="M45.15144,50.63015a165.11564,165.11564,0,0,1-2.669,23.94606c-.43977,2.3589,3.17363,3.37,3.61605.9969a172.02387,172.02387,0,0,0,2.803-24.943c.09323-2.41336-3.65693-2.40932-3.75,0Z"/>
  <path class="cls-2" d="M32.34257,72.27106a41.176,41.176,0,0,0-2.254,17.35876c.19851,2.3878,3.95027,2.409,3.75,0a38.61859,38.61859,0,0,1,2.12-16.36187c.80845-2.27869-2.81342-3.25919-3.61605-.99689Z"/>
  <path class="cls-2" d="M50.744,71.23492a172.73605,172.73605,0,0,1-5.41509,25.35779c-.68065,2.32037,2.93711,3.31142,3.616.9969a172.73807,172.73807,0,0,0,5.41509-25.35779c.32159-2.35993-3.29117-3.381-3.61605-.9969Z"/>
  <path class="cls-2" d="M43.76248,83.41683q-.70457,8.01047-2.10829,15.92226c-.27921,1.57328,2.12959,2.24854,2.41069.6646q1.46377-8.248,2.1976-16.58686c.14094-1.60233-2.3599-1.59285-2.5,0Z"/>
  <path class="cls-2" d="M54.41222,81.24494l-1.21344,10.8638c-.17832,1.59646,2.3231,1.58377,2.5,0l1.21344-10.8638c.17832-1.59645-2.3231-1.58376-2.5,0Z"/>
  <path class="cls-2" d="M39.163,62.83887l-1.75756,15.5436c-.48492,4.28854-1.19133,8.43647-.03558,12.662a1.25107,1.25107,0,0,0,2.4107-.6646c-1.24166-4.53957-.17405-9.35374.34457-13.94031L41.663,62.83887c.18047-1.59606-2.321-1.58319-2.5,0Z"/>
</svg>
