<svg id="Layer_1" data-name="Layer 1" xmlns="http://www.w3.org/2000/svg" viewBox="0 0 207.64352 284.67615">
  <defs>
    <style>
      .cls-1 {
        fill: #006838;
      }

      .cls-2 {
        fill: #009444;
      }

      .cls-3 {
        fill: #8dc63f;
      }

      .cls-4 {
        fill: #603913;
        stroke: #603913;
        stroke-miterlimit: 10;
      }
    </style>
  </defs>
  <title>avocado</title>
  <g>
    <g>
      <g>
        <path class="cls-1" d="M19.83433,138.11411,33.48158,50.38265C35.65839,36.389,38.60105,21.02909,49.72343,12.26247c5.74458-4.52786,13.091-6.68171,20.38915-7.17074,18.3931-1.23249,36.34805,7.65978,49.76877,20.2974s22.9625,28.77265,31.85758,44.91894q13.93864,25.30137,26.36217,51.39883c18.28024,38.4021,34.12825,83.21752,17.62763,122.41724-3.27118,7.77117-7.88263,15.18385-14.54113,20.35648-8.42082,6.54169-19.2688,8.92639-29.77171,10.76838-26.21211,4.597-53.42284,6.90189-79.24008.44609s-50.2287-22.8694-60.89752-47.24938c-12.62967-28.86088-4.19493-62.35426,7.00357-91.8"/>
        <path class="cls-1" d="M24.65573,139.4433,37.08988,59.5102c1.64014-10.54365,2.71847-21.74968,7.09049-31.604,4.79985-10.81863,14.13284-16.99125,25.93221-17.81446,23.333-1.6279,43.6756,13.61491,57.37807,31.1,15.09493,19.262,26.03383,42.24626,36.98108,64.01205,20.45231,40.66416,47.072,93.80909,25.64875,139.29044-4.81775,10.228-12.07176,17.94765-22.85207,21.80024-11.27474,4.02929-23.8298,5.51383-35.66164,6.86977-24.12467,2.76471-49.44292,2.4566-72.2217-6.88894-21.65167-8.88313-40.43043-25.86342-46.74021-48.93877-7.2389-26.47321,1.08481-54.5344,10.45839-79.36165,2.27558-6.0272-7.38744-8.632-9.64279-2.6584C4.15237,159.9703-3.28885,186.83238,1.49131,213.31962c4.12625,22.86383,18.71511,41.74974,38.14074,53.97865,21.97305,13.83258,48.30031,18.17961,73.91694,17.26015a284.97416,284.97416,0,0,0,40.77378-4.76885c11.82214-2.15512,23.76276-5.45953,32.80273-13.81448,18.18883-16.81054,22.26277-46.23533,19.91481-69.61512-2.66452-26.53192-12.58335-51.65987-23.87206-75.59492-11.8367-25.09693-24.26282-50.59152-39.42878-73.87418C130.15009,26.02854,111.19647,6.50478,85.88,1.30157,72.87079-1.37217,58.10473-.28487,47.19984,7.94512,36.98562,15.65384,32.58268,28.14676,30.17532,40.26277,27.16567,55.41,25.27153,70.83745,22.898,86.09562l-7.88507,50.68929c-.97934,6.29572,8.655,9.00828,9.64279,2.65839Z"/>
      </g>
      <g>
        <path class="cls-1" d="M10.04854,154.57385a229.87906,229.87906,0,0,0,11.06793-38.57072"/>
        <path class="cls-1" d="M12.45924,155.23845a240.86707,240.86707,0,0,0,11.06793-38.57072c.6245-3.14254-4.19376-4.48751-4.8214-1.3292A240.86646,240.86646,0,0,1,7.63785,153.90925c-1.14284,3.01139,3.68888,4.31339,4.82139,1.3292Z"/>
      </g>
    </g>
    <g>
      <g>
        <path class="cls-2" d="M26.63981,138.88614,38.96608,56.26121c1.96611-13.17914,4.62393-27.645,14.66973-35.90135,5.18854-4.2643,11.8239-6.29279,18.4156-6.75336,16.61275-1.16074,32.82976,7.21394,44.95142,19.116s20.73986,27.0979,28.77394,42.30438q12.58947,23.82867,23.81046,48.40709c16.51082,36.16686,30.82483,78.37374,15.92137,115.29179-2.95454,7.31884-7.11963,14.30006-13.13362,19.17161-7.60573,6.16092-17.40369,8.40682-26.89,10.14158-23.67492,4.32946-48.25181,6.50017-71.57008.42013s-45.36685-21.53826-55.003-44.49917c-11.40719-27.181-3.78889-58.72485,6.32566-86.45667"/>
        <path class="cls-2" d="M31.46121,140.21534,42.61354,65.45945c2.809-18.82913,4.77982-44.38389,28.61388-46.77885,21.57886-2.16835,40.44574,13.10865,52.52,29.44384,13.58493,18.37893,23.45548,39.86608,33.335,60.37689,18.42741,38.25722,41.24109,86.2822,23.60482,128.8952-4.11249,9.93666-10.61849,17.96911-20.86168,21.87279-10.10444,3.85081-21.56165,5.236-32.23226,6.51483-22.1117,2.65-45.60661,2.33507-66.2418-6.997-19.53658-8.83525-35.49111-24.7895-40.88112-45.91758-6.29863-24.68978,1.17757-50.79722,9.58865-74.03715,2.19381-6.0615-7.46595-8.673-9.64279-2.65839-8.35714,23.09089-14.95838,47.99746-10.966,72.68466,3.46036,21.39727,16.22421,39.45083,34.05754,51.4329,19.40273,13.03656,42.99323,17.46491,66.05844,16.861a241.19873,241.19873,0,0,0,38.83149-4.58668c11.07255-2.11669,22.25017-5.4777,30.36287-13.74242,16.25685-16.56147,19.64629-43.83046,17.37322-65.86591-2.54232-24.64566-11.36779-48.01933-21.50231-70.44771-10.7658-23.82546-22.04934-48.07547-36.00583-70.22845-12.12735-19.24961-29.2981-37.81084-52.52622-42.59307C73.99415,7.19606,60.50593,8.46252,50.60625,16.43342,41.62876,23.6618,37.7764,35.10232,35.63138,46.03755,32.7612,60.6697,31.06178,75.59723,28.862,90.3427L21.81842,137.557c-.93917,6.29537,8.695,9.01131,9.64279,2.65839Z"/>
      </g>
      <g>
        <path class="cls-2" d="M17.80123,154.38783a223.65418,223.65418,0,0,0,9.99662-36.32566"/>
        <path class="cls-2" d="M20.21193,155.05243a234.90443,234.90443,0,0,0,9.99661-36.32567c.59992-3.14435-4.21807-4.49138-4.82139-1.32919a234.906,234.906,0,0,1-9.99661,36.32566c-1.10167,3.02882,3.72839,4.3342,4.82139,1.3292Z"/>
      </g>
    </g>
    <g>
      <g>
        <path class="cls-3" d="M31.8126,140.44251,43.36955,63.83288C45.213,51.61322,47.7049,38.20051,57.12371,30.54525c4.86471-3.95386,11.08594-5.83467,17.26624-6.2617,15.57591-1.07624,30.78077,6.68874,42.14589,17.72427s19.44544,25.12511,26.97809,39.22451q11.80374,22.09389,22.3244,44.88294c15.48033,33.53382,28.901,72.66793,14.92768,106.89825-2.77015,6.786-6.67528,13.259-12.31392,17.77586-7.131,5.71239-16.31749,7.79479-25.21171,9.40326-22.19731,4.01426-45.2403,6.02693-67.10322.38954S33.60177,240.612,24.567,219.32266c-10.69524-25.20214-3.55241-54.44953,5.93086-80.16241"/>
        <path class="cls-3" d="M36.634,141.77171,47.00562,73.01948C49.59856,55.83119,51.21557,32.095,72.84483,29.421c20.06194-2.48031,37.99544,11.51787,49.40566,26.59738,12.65574,16.72555,21.81571,36.43382,30.98977,55.19715,17.24311,35.26667,38.70042,79.21767,23.33938,118.86074-3.52492,9.097-9.10734,16.9859-18.2821,20.9483-9.23433,3.98813-20.06608,5.22326-29.95843,6.48578-20.66716,2.63766-42.57928,2.65209-62.11652-5.47062-18.56132-7.717-34.274-22.4633-39.66054-42.21767-6.29193-23.07467.80728-47.59546,8.75725-69.33256,2.2139-6.05331-7.44663-8.6632-9.64279-2.65839-7.8856,21.56109-14.1194,44.87758-10.22148,67.9512,3.46537,20.51315,16.2429,37.632,33.66617,48.60934,18.52868,11.6738,40.71051,15.37672,62.32056,14.55408a232.60014,232.60014,0,0,0,36.27526-4.52416c10.16909-2.01815,20.415-5.46753,27.66253-13.25361,14.79121-15.89036,17.87376-40.9006,15.55179-61.59628-2.52932-22.5438-10.6861-43.89924-20.05163-64.404-10.19573-22.32241-20.86394-45.118-34.16844-65.78632C125.14621,41.4152,108.77412,24.268,86.88461,20.14984c-10.98947-2.06751-23.187-.93215-32.28449,6.078C46.025,32.83562,42.17956,43.31966,40.07427,53.59545c-2.72473,13.29918-4.243,26.91789-6.26743,40.33783l-6.81563,45.18c-.94972,6.29552,8.68453,9.01057,9.64279,2.6584Z"/>
      </g>
      <g>
        <path class="cls-3" d="M23.52566,154.81564a205.57057,205.57057,0,0,0,9.3727-33.68107"/>
        <path class="cls-3" d="M25.93636,155.48023a216.48968,216.48968,0,0,0,9.37269-33.68106c.60728-3.14385-4.21079-4.49026-4.82139-1.3292A216.48921,216.48921,0,0,1,21.115,154.151c-1.11172,3.02469,3.71874,4.32923,4.8214,1.32919Z"/>
      </g>
    </g>
    <circle class="cls-4" cx="104.90146" cy="188.84484" r="53.55635"/>
  </g>
</svg>
