<svg id="Layer_1" data-name="Layer 1" xmlns="http://www.w3.org/2000/svg" viewBox="0 0 292.78526 335.40731">
  <defs>
    <style>
      .cls-1 {
        fill: #f9ed32;
        stroke: #f9ed32;
      }

      .cls-1, .cls-2, .cls-3, .cls-4, .cls-5 {
        stroke-miterlimit: 10;
      }

      .cls-1, .cls-2, .cls-3, .cls-5 {
        stroke-width: 2px;
      }

      .cls-2, .cls-3 {
        fill: #ffde17;
      }

      .cls-2 {
        stroke: #ffde17;
      }

      .cls-3 {
        stroke: #fbb040;
      }

      .cls-4 {
        fill: #3c2415;
        stroke: #3c2415;
      }

      .cls-5 {
        fill: #603913;
        stroke: #603913;
      }
    </style>
  </defs>
  <title>banana</title>
  <path class="cls-1" d="M255.10891,70.40457l9.91-67.21552s24.10154,6.35547,24.81654-1.48931-20.01385,52.543-12.497,67.56212S320.343,113.1997,241.34657,252.82269,3.46727,310.53136,3.46727,310.53136s-1.47139-19.32458,7.64805-24.55125S155.44935,269.85958,255.10891,70.40457Z"/>
  <path class="cls-2" d="M11.11532,285.98011S169.8837,259.43246,255.10891,70.40457l9.91-67.21552,9.44663,1.87-8.68091,68.3097s-53.612,249.84045-261.424,224.06881Z"/>
  <path class="cls-3" d="M46.93294,42.37206"/>
  <ellipse class="cls-4" cx="7.39387" cy="298.40859" rx="12.96959" ry="6.20974" transform="translate(-282.47526 227.14681) rotate(-74.76887)"/>
  <polygon class="cls-5" points="255.109 70.405 265.019 3.189 289.835 1.7 277.338 69.262 255.109 70.405"/>
</svg>
