<svg id="Layer_1" data-name="Layer 1" xmlns="http://www.w3.org/2000/svg" viewBox="0 0 169.1511 234.52811">
  <defs>
    <style>
      .cls-1 {
        fill: #d1d3d4;
        stroke: #d1d3d4;
      }

      .cls-1, .cls-2, .cls-3, .cls-4, .cls-5 {
        stroke-miterlimit: 10;
      }

      .cls-2 {
        fill: #006838;
        stroke: #006838;
      }

      .cls-3 {
        fill: #603913;
        stroke: #603913;
      }

      .cls-4 {
        fill: none;
        stroke: #3c2415;
        stroke-linecap: round;
        stroke-width: 3px;
      }

      .cls-5 {
        fill: #c49a6c;
        stroke: #c49a6c;
      }
    </style>
  </defs>
  <title>coffee</title>
  <path class="cls-1" d="M88.41528,29.47674h60.47488l-11.519,198.10747a230.03627,230.03627,0,0,1-52.79558,6.44388A230.03642,230.03642,0,0,1,31.78,227.58421L20.26094,29.47674H80.73581"/>
  <path class="cls-2" d="M24.21851,97.5402,27.98894,162.385s57.9242,18.42435,113.17322,0l3.77042-64.84482S85.01461,111.52422,24.21851,97.5402Z"/>
  <g>
    <ellipse class="cls-3" cx="114.22049" cy="134.14576" rx="18.3504" ry="13.14288" transform="translate(-58.06419 171.0157) rotate(-61.66618)"/>
    <path class="cls-4" d="M106.772,149.282s-5.732-11.31412,8.32344-15.43647,5.83281-15.694,5.83281-15.694"/>
  </g>
  <g>
    <ellipse class="cls-3" cx="67.02583" cy="141.75724" rx="13.14288" ry="18.3504" transform="translate(-89.59763 149.28502) rotate(-67.44591)"/>
    <path class="cls-4" d="M51.21646,135.87088s10.67937-6.84228,16.1962,6.7266,16.20158,4.22271,16.20158,4.22271"/>
  </g>
  <polyline class="cls-5" points="0.5 31.563 0.5 19.138 13.083 19.138 13.083 0.5 157.212 0.5 157.212 16.032 168.651 16.032 168.651 31.563"/>
</svg>
