<svg id="Layer_1" data-name="Layer 1" xmlns="http://www.w3.org/2000/svg" viewBox="0 0 230 300"><defs><style>.cls-1{fill:#fff0e0;}.cls-2{fill:#a97c50;}.cls-3{fill:#be1e2d;}.cls-4{fill:#fff;}.cls-5{fill:#8dc63f;}</style></defs><title>crepe</title><path class="cls-1" d="M25.34,22A481.48,481.48,0,0,1,197.7,16.54c7.86,1.18,15.82,2.59,23.05,6.3,1.88,1,3.82,2.2,4.71,4.32a11.79,11.79,0,0,1,.29,6.17C223.54,48.73,217.21,62.9,211,76.8l-26.19,58.31-70,155.82c-.78,1.74-1.86,3.71-3.58,3.82a4.54,4.54,0,0,1-2.91-1.36c-15-12.22-24.54-31.11-33.2-49.63C47.17,184,23.24,120.86,13.5,54.07c-1-7.06-1.87-14.47.17-21.24s7.88-12.61,14.11-11.61"/><path class="cls-1" d="M26,24.39a482.83,482.83,0,0,1,155.44-7.5c12.23,1.41,26,2.23,37.26,7.73,7.13,3.49,4.38,10.87,2.84,17.15a139.8,139.8,0,0,1-6.07,18.35c-9.84,24.63-21.57,48.62-32.44,72.82L117.55,278.8,113.89,287c-.4.89-1,3.59-1.87,4-2.37,1.25-3-.5-4.3-1.4-4.77-3.23-8.88-9.19-12.15-13.8-6.38-9-11.41-18.85-16.15-28.77C68.84,224.84,59,202.27,50.2,179.34a648.56,648.56,0,0,1-25-78.76Q20.33,80.82,17,60.74c-1.11-6.88-2.5-14-2-21S19.16,23,27.78,23.72c3.21.28,3.19-4.73,0-5C17.11,17.82,11.1,28.81,10.14,38c-1.32,12.6,2.3,26.35,4.67,38.65a582.58,582.58,0,0,0,21.75,79.89c8.84,25.57,19.16,50.62,30.33,75.26,9.72,21.45,19.36,45.25,37.3,61.31,2.82,2.53,6.26,5.68,10,3,2.12-1.52,3-4.39,4-6.65l5.29-11.77,17.89-39.87L178,156.3c12.21-27.19,24.5-54.35,36.63-81.58,5.33-11.95,10.51-24.13,12.92-37,.83-4.41,2-9.58-1-13.45s-8.66-5.6-13.15-7c-14.09-4.33-29.82-5.32-44.43-6.62-16-1.42-32-2-48-1.85A490.76,490.76,0,0,0,24.68,19.56c-3.15.67-1.82,5.49,1.33,4.83Z"/><path class="cls-2" d="M37.59,34.48c22.85-2.17,45.7-4.35,68.59-5.89,11.78-.8,23.56-1.43,35.35-1.81,9.75-.31,19.69-.74,29.38.67a59.37,59.37,0,0,1,13.49,3.49,40,40,0,0,1,6.6,3.4c2.58,1.66,4.14,2.76,2.39,5.78-2.13,3.69-6.78,6.22-10.27,8.42a108.84,108.84,0,0,1-13.35,7.13c-18.73,8.4-39.32,11.76-59.42,15.07-12.35,2-24.72,4-36.86,7.09-9.87,2.5-22.07,5-29.13,13a5.14,5.14,0,0,0,0,7.07c15,17.42,37.35,25.36,59.12,30.45,12,2.81,24.2,5,36.09,8.36A123.89,123.89,0,0,1,157.32,143c1,.47,3.25,1.06,4,1.91,1.38,1.66,1.28-.64-.08,1.77s-4.3,4.41-6.35,6c-20,15.64-46.79,14.6-70.43,19.31-10.27,2-21.57,8.06-22.43,19.77-.77,10.58,8.32,18,16.77,22.43,13,6.9,27.15,11.51,40.52,17.69a19.71,19.71,0,0,0,3.33,1.58c1.18.88,1.4.81.67-.2a19.16,19.16,0,0,1-1.4,3,28.57,28.57,0,0,1-4.85,6.4,31,31,0,0,1-15.84,8.47c-6.29,1.36-3.63,11,2.65,9.65a40.78,40.78,0,0,0,25.94-18.24c2.69-4.33,5.32-10.11,1.71-14.69s-11.11-6.39-16.2-8.53c-12.05-5.08-25.64-9.13-36.44-16.68-4.27-3-8.85-7.66-6-13.2,3.18-6.11,11.42-7.35,17.48-8.36,25-4.17,51.88-4.89,72.3-21.87,3.82-3.19,8.42-7.28,9.45-12.37,1.13-5.64-2.77-9.08-7.35-11.34-12-5.92-24.95-9.33-37.91-12.23-26.71-6-56.55-10.51-75.41-32.42V97.9c3.46-3.89,8.19-5.49,13-7.06,5.94-1.94,12-3.52,18.08-4.88,11.92-2.67,24-4.48,36-6.5,21.37-3.57,42.94-8,62.3-18.1,8.16-4.26,19.28-10.1,22.64-19.29,3.81-10.42-6.49-16.59-14.65-20-20-8.45-43.92-5.59-65-4.5C95,19,66.31,21.75,37.59,24.48c-6.35.61-6.41,10.61,0,10Z"/><path class="cls-3" d="M41.5,59.45c2.38-3.29,6.25-5.26,10.22-6.14a50.8,50.8,0,0,1,12.14-.68c4.25.11,8.79.31,12.23,2.82,4.62,3.39,5.7,9.85,5.41,15.58a50.49,50.49,0,0,1-3.41,15.91c-1.65,4.23-4.21,8.54-8.45,10.15-3,1.15-6.4.73-9.49-.2-13.4-4-23-18.14-21.76-32.08.19-2.22.72-4.6,2.38-6.09"/><path class="cls-3" d="M43.27,61.22c3.89-4.76,9.45-6,15.35-6.14,5.06-.12,11.51-.62,15.83,2.37,8.76,6.08,4.07,23.78.06,31.37-5.8,11-18.68,5.38-25.45-1.68A30.14,30.14,0,0,1,42.21,75.8c-1.41-4.25-2.94-11.56.33-15.31,2.1-2.42-1.42-6-3.54-3.54-8.17,9.38-.81,26.1,6.52,33.72,8.15,8.47,23.72,14.74,31.87,3,6.62-9.51,11-29.94,1.55-39.11-5.17-5-13.67-4.68-20.32-4.51-7.12.19-14.2,1.86-18.89,7.6-2,2.47,1.5,6,3.54,3.54Z"/><path class="cls-4" d="M63.46,91.33a1.25,1.25,0,0,0,0-2.5,1.25,1.25,0,0,0,0,2.5Z"/><path class="cls-4" d="M69.46,79.33a1.25,1.25,0,0,0,0-2.5,1.25,1.25,0,0,0,0,2.5Z"/><path class="cls-4" d="M46.13,74a1.25,1.25,0,0,0,0-2.5,1.25,1.25,0,0,0,0,2.5Z"/><path class="cls-4" d="M66.13,61.33a1.25,1.25,0,0,0,0-2.5,1.25,1.25,0,0,0,0,2.5Z"/><path class="cls-4" d="M73.46,66.67a1.25,1.25,0,0,0,0-2.5,1.25,1.25,0,0,0,0,2.5Z"/><path class="cls-4" d="M56.79,71.33a1.25,1.25,0,0,0,0-2.5,1.25,1.25,0,0,0,0,2.5Z"/><path class="cls-4" d="M49.46,60a1.25,1.25,0,0,0,0-2.5,1.25,1.25,0,0,0,0,2.5Z"/><path class="cls-4" d="M74.79,72.67a1.25,1.25,0,0,0,0-2.5,1.25,1.25,0,0,0,0,2.5Z"/><path class="cls-4" d="M50.13,85.33a1.25,1.25,0,0,0,0-2.5,1.25,1.25,0,0,0,0,2.5Z"/><path class="cls-5" d="M47.45,51.36A13.92,13.92,0,0,1,36,48c-.91-.83-1.74-2.19-1-3.22s2.53-.64,3.76,0l8.84,4.41a23.78,23.78,0,0,0,6.77-10.5c1.73-.13,3.07,1.75,3,3.49a9.48,9.48,0,0,1-2,4.75,2.89,2.89,0,0,0,3.52.6,8.24,8.24,0,0,0,2.8-2.62l4-5.11a30.18,30.18,0,0,1,.06,11.05c.92.17,1.65-.73,2.14-1.53L74.32,39a11.32,11.32,0,0,1-2.19,9c-3,3.89-8.33,5.32-13.27,5.52S49,52.94,44,53.48A21.76,21.76,0,0,1,44.49,48"/><path class="cls-5" d="M47.45,50.11c-1.69.18-12.27-1.17-10.35-3.82.89-1.22,3,.52,4.49,1.27,1.77.87,3.53,1.76,5.3,2.64A1.3,1.3,0,0,0,48.41,50,27.52,27.52,0,0,0,55.49,39L54,39.83c1.85,2.4,2,4.53.31,6.4a1.29,1.29,0,0,0,.45,1.71c5.1,3.84,9.27-4,11.83-7.32l-2.09-.56a32.34,32.34,0,0,1,.06,10.39c-.13.87.54,1.87,1.54,1.54,4.43-1.46,7-8.66,9.34-12.36L73.07,39C75,55.59,53.92,51.46,44,52.23l1.25,1.25a20.15,20.15,0,0,1,.42-5.13c.27-1.57-2.14-2.25-2.41-.66a33,33,0,0,0-.51,5.79A1.25,1.25,0,0,0,44,54.73c7.55-.59,15.55,1.35,22.8-1.51,6-2.38,9.49-7.7,8.74-14.22a1.26,1.26,0,0,0-2.33-.63c-1.57,2.49-5,10.28-7.84,11.21l1.53,1.53a37.1,37.1,0,0,0-.06-11.71,1.26,1.26,0,0,0-2.09-.55C63.43,40.58,59,48,56,45.78l.45,1.71c2.14-3.46,3.64-9-1.81-10.07a1.28,1.28,0,0,0-1.54.87c-.69,2-3,8.27-5.3,8.85-2.44.64-6.24-2.61-8.47-3.51-1.7-.68-4-1.48-5.37.36-4.38,6,10.42,8.94,13.51,8.62,1.58-.17,1.6-2.67,0-2.5Z"/><path class="cls-3" d="M119.92,158.5c3.12-2.6,7.36-3.55,11.42-3.42a50.42,50.42,0,0,1,11.93,2.34c4.09,1.16,8.45,2.47,11.15,5.76,3.65,4.42,3.09,10.95,1.4,16.43a50.46,50.46,0,0,1-7.24,14.58c-2.64,3.68-6.19,7.23-10.69,7.74-3.21.37-6.39-.88-9.16-2.54-12-7.2-17.78-23.27-13.15-36.46.74-2.11,1.84-4.28,3.82-5.32"/><path class="cls-3" d="M121.18,160.66c4.94-3.65,10.6-3.45,16.37-2.17,4.53,1,10.66,2.14,14.15,5.43,7.93,7.49-.75,23.36-6,30-4.47,5.59-10,7-16.24,3a27.39,27.39,0,0,1-9.1-9.82,30,30,0,0,1-3.79-12.86c-.25-4.35.14-11.67,4.12-14.42,2.63-1.82.13-6.15-2.53-4.32-10,6.9-7.31,24.43-2.45,33.54,5.81,10.89,20.06,21.3,31.17,11,8.41-7.79,17.7-26.61,10.14-37.52-3.81-5.5-11.16-7.12-17.27-8.61-7.21-1.76-14.82-2.14-21.06,2.46-2.56,1.89-.07,6.23,2.52,4.32Z"/><path class="cls-4" d="M133.63,194.86a1.25,1.25,0,0,0,0-2.5,1.25,1.25,0,0,0,0,2.5Z"/><path class="cls-4" d="M142.41,184.72a1.25,1.25,0,0,0,0-2.5,1.25,1.25,0,0,0,0,2.5Z"/><path class="cls-4" d="M121.12,173.78a1.25,1.25,0,0,0,0-2.5,1.25,1.25,0,0,0,0,2.5Z"/><path class="cls-4" d="M143.63,166.45a1.25,1.25,0,0,0,0-2.5,1.25,1.25,0,0,0,0,2.5Z"/><path class="cls-4" d="M143.17,215.37a1.25,1.25,0,0,0,0-2.5,1.25,1.25,0,0,0,0,2.5Z"/><path class="cls-4" d="M132.11,173.84a1.25,1.25,0,0,0,0-2.5,1.25,1.25,0,0,0,0,2.5Z"/><path class="cls-4" d="M127.81,161a1.25,1.25,0,0,0,0-2.5,1.25,1.25,0,0,0,0,2.5Z"/><path class="cls-4" d="M143,221.52a1.25,1.25,0,0,0,0-2.5,1.25,1.25,0,0,0,0,2.5Z"/><path class="cls-4" d="M122.19,185.75a1.25,1.25,0,0,0,0-2.5,1.25,1.25,0,0,0,0,2.5Z"/><path class="cls-5" d="M127.69,152.13A13.89,13.89,0,0,1,117.41,146c-.68-1-1.15-2.56-.23-3.38s2.61,0,3.65.9l7.48,6.46a23.75,23.75,0,0,0,9.15-8.5c1.71.3,2.54,2.46,2.08,4.13a9.45,9.45,0,0,1-3.08,4.11,2.88,2.88,0,0,0,3.26,1.46,8.44,8.44,0,0,0,3.36-1.85l5.13-4a29.74,29.74,0,0,1-2.67,10.72c.85.39,1.78-.3,2.46-1l8.78-8.35a11.32,11.32,0,0,1-4.35,8.19c-3.92,3-9.38,3.09-14.22,2.07s-9.46-3-14.36-3.71a21.65,21.65,0,0,1,1.8-5.18"/><path class="cls-5" d="M128,150.92c-2.59-.36-7.8-1.69-8.76-4.61-1.23-1.05-1-1.31.71-.77a2.92,2.92,0,0,1,3,1.45,45.91,45.91,0,0,1,4.49,3.88,1.29,1.29,0,0,0,1.51.19,27.31,27.31,0,0,0,6-4.39c.62-.62,1.15-1.43,1.8-2l1-1.26a5.53,5.53,0,0,1-2.1,5.42,1.3,1.3,0,0,0,0,1.77c4,5,10-1.62,13.27-4.16L147,145.37a32,32,0,0,1-2.5,10.09c-.34.79,0,1.95,1.08,1.88,4.67-.31,8.93-6.63,12.12-9.66l-2.13-.89c-2,16.21-22,7-31.35,5.35l.87,1.54a21.27,21.27,0,0,1,1.68-4.89c.64-1.45-1.51-2.73-2.16-1.26a34.27,34.27,0,0,0-1.93,5.48,1.27,1.27,0,0,0,.88,1.54c7.86,1.36,15.78,5.7,23.94,4A13.08,13.08,0,0,0,158,146.79c.14-1.14-1.43-1.55-2.14-.88-2.11,2-7.4,8.73-10.35,8.93l1.08,1.88a36.21,36.21,0,0,0,2.84-11.35,1.25,1.25,0,0,0-1.88-1.08c-1.73,1.34-7.89,7.48-10.24,4.55v1.77c3.07-2.91,5.69-8.14.46-10.34a1.27,1.27,0,0,0-1.42.58c-1.19,1.79-4.93,7.26-7.32,7.27s-5.43-4.05-7.34-5.48c-1.53-1.14-3.84-2.52-5.52-.77-4.9,5.09,7.88,11,11.16,11.47,1.57.21,2.25-2.19.66-2.42Z"/></svg>