<svg id="Layer_1" data-name="Layer 1" xmlns="http://www.w3.org/2000/svg" viewBox="0 0 465.42225 208.88078">
  <defs>
    <style>
      .cls-1 {
        fill: #939598;
      }

      .cls-2 {
        fill: #fbf7c1;
        stroke: #fbf7c1;
      }

      .cls-2, .cls-3, .cls-4 {
        stroke-miterlimit: 10;
      }

      .cls-3 {
        fill: #f9ed32;
        stroke: #f9ed32;
      }

      .cls-4 {
        fill: #58595b;
        stroke: #58595b;
      }
    </style>
  </defs>
  <title>fish</title>
  <path class="cls-1" d="M0,71.82346s197.48727-161.60279,379.63749,0c0,0,60.73465-33.8755,72.01753-28.87747s-35.36535,62.19763-35.36535,62.19763,53.31226,28.32214,48.86957,39.9842-84.41108-18.88143-84.41108-18.88143S99.61751,204.54877,0,71.82346Z" transform="translate(0 0)"/>
  <circle class="cls-2" cx="261.3432" cy="153.98552" r="54.39526"/>
  <path class="cls-3" d="M245.09,112.57463s19.50387-7.00139,32.50644,0l-16.01011,35.507Z" transform="translate(0 0)"/>
  <path class="cls-4" d="M155.70891,27.39658s11.53391,37.48518,0,96.07313C155.70891,123.46971,144.75171,83.76319,155.70891,27.39658Z" transform="translate(0 0)"/>
  <path class="cls-4" d="M182.36119,27.39658s11.5339,37.48518,0,96.07313C182.36119,123.46971,171.404,83.76319,182.36119,27.39658Z" transform="translate(0 0)"/>
  <path class="cls-4" d="M206.48143,26.55674s11.5339,37.48519,0,96.07314C206.48143,122.62988,195.52422,82.92335,206.48143,26.55674Z" transform="translate(0 0)"/>
  <path class="cls-3" d="M216.87029,147.87663s3.68856-20.39153,16.25323-28.15139l22.74492,31.61868Z" transform="translate(0 0)"/>
  <path class="cls-3" d="M233.24505,188.61909s-15.8153-13.39015-16.25321-28.15141l38.75505-3.88833Z" transform="translate(0 0)"/>
  <path class="cls-3" d="M277.59642,193.63785s-19.50386,7.00138-32.50644,0l16.01014-35.507Z" transform="translate(0 0)"/>
  <path class="cls-3" d="M305.63027,160.25717s-3.68856,20.39153-16.25323,28.15139l-22.74492-31.61869Z" transform="translate(0 0)"/>
  <path class="cls-3" d="M289.25552,119.51471s15.8153,13.39016,16.2532,28.15141l-38.755,3.88833Z" transform="translate(0 0)"/>
</svg>
