<svg id="Layer_1" data-name="Layer 1" xmlns="http://www.w3.org/2000/svg" viewBox="0 0 308.49648 205.61753">
  <defs>
    <style>
      .cls-1 {
        fill: #fff4c0;
        stroke: #fff4c0;
        stroke-width: 3px;
      }

      .cls-1, .cls-2, .cls-4, .cls-5, .cls-6, .cls-7, .cls-8 {
        stroke-miterlimit: 10;
      }

      .cls-2, .cls-8 {
        fill: #c49a6c;
        stroke: #c49a6c;
      }

      .cls-3 {
        fill: #d7df23;
      }

      .cls-4 {
        fill: #8b5e3c;
        stroke: #8b5e3c;
      }

      .cls-5 {
        fill: #ed1c24;
        stroke: #ed1c24;
      }

      .cls-5, .cls-6, .cls-7, .cls-8 {
        stroke-width: 2px;
      }

      .cls-6 {
        fill: #754c29;
        stroke: #754c29;
      }

      .cls-7 {
        fill: #ffde17;
        stroke: #ffde17;
      }
    </style>
  </defs>
  <title>hamburger</title>
  <path class="cls-1" d="M117.23963,5.49137s-.55777-1.32418-1.197-1.6455-1.5422,1.06621-.78524,1.36007C115.25743,5.20594,114.66642,5.676,117.23963,5.49137Z"/>
  <path class="cls-1" d="M141.11267,2.01393s.55777,1.32419,1.197,1.6455,1.54219-1.06621.78523-1.36007C143.09486,2.29936,143.68587,1.82931,141.11267,2.01393Z"/>
  <g>
    <path class="cls-2" d="M40.25845,183.111s108.76568,49.51465,229.61912,0c0,0,.88521-1.61012-1.30007-15.22438s-228.319-5.03167-228.319-5.03167Z"/>
    <g>
      <path class="cls-3" d="M268.855,150.997c-80.716-5.84272-162.37732,3.654-242.45761-8.02339l.948-.22555a41.5167,41.5167,0,0,0-20.90933.22807,5.2753,5.2753,0,0,0-2.89762,1.5593c-1.39,1.78338-.06524,4.559,1.92228,5.637s4.35942,1.05566,6.59209,1.413c10.16311,1.62659,17.68761,12.82458,15.35331,22.84883-1.15571,4.963-4.04643,10.93648-.38565,14.48126,4.06541,3.93658,10.87519-.66241,13.238-5.80454s3.56388-11.57321,8.56457-14.22225c5.6054-2.96938,12.42259.78556,17.00411,5.17275s8.92981,9.82624,15.17008,10.965c10.56526,1.928,19.172-9.40263,29.85061-10.54684,14.71805-1.577,26.26647,16.32643,40.97057,14.62422,13.49053-1.56172,21.21026-18.8506,34.75622-19.82005,4.521-.32355,8.93416,1.30335,13.13021,3.01718a250.08534,250.08534,0,0,1,27.09145,13.01677c3.73523,2.07979,7.76332,4.33176,12.00737,3.81649,9.93763-1.20652,12.52-15.437,21.48814-19.885,5.96444-2.9583,13.09949-.81449,19.31355,1.57542s13.01813,5.02532,19.33008,2.90743,9.92978-11.69368,4.467-15.49947c-1.78906-1.24639-4.04924-1.54806-6.21334-1.81425L266.97473,152.702"/>
      <path class="cls-3" d="M268.855,148.497c-80.49239-5.70342-161.65219,3.58021-241.793-7.93409v4.8214l.948-.22555c2.36669-.56307,2.39962-4.27637,0-4.82139-7.136-1.6208-18.37721-2.96889-24.91637,1.30906-5.26646,3.44535-1.63879,10.11384,3.257,11.56207,4.1121,1.21639,8.06449.9043,11.72722,3.572a17.89559,17.89559,0,0,1,7.18955,12.37381c.65883,6.6234-5.45477,14.37632-.85691,20.50466,4.15723,5.54106,11.387,2.90179,15.35784-1.4052,4.93926-5.35737,5.24277-19.59311,15.19947-17.74292C63.6973,172.133,68.16241,181.84,75.69138,185.77556c6.37485,3.33227,12.97355,1.75256,19.04569-1.39,7.31132-3.78383,14.06354-9.24277,22.76785-6.78574,7.29291,2.05862,13.24091,7.31128,19.92656,10.67133,5.81124,2.9206,12.222,4.534,18.59638,2.45161,6.40785-2.09328,11.3641-6.95373,16.36492-11.24351,6.94794-5.96,13.38362-9.4063,22.65123-6.28412,10.264,3.45785,20.19322,8.62369,29.66763,13.82718,6.20865,3.40987,13.03483,6.78113,19.76808,2.6781,5.398-3.28937,8.03018-9.44628,12.02458-14.0839,8.67057-10.06676,20.03162-2.38873,30.28582.32173,7.679,2.02977,16.35431,1.22176,20.31633-6.52371,2.95882-5.78428,1.18473-12.46535-5.23309-14.61594-4.95847-1.66157-10.8511-1.63878-16.01467-2.2739l-18.884-2.32271c-3.18611-.39189-3.15771,4.6116,0,5q13.69083,1.684,27.38174,3.36794c4.26785.5307,10.34724,1.0829,8.95789,6.85558-1.09073,4.532-5.26219,6.61487-9.63113,6.5801-8.89343-.07075-16.5849-6.139-25.47751-6.64821a18.16814,18.16814,0,0,0-15.23695,6.72359c-3.56425,4.122-5.99626,9.89793-10.57547,13.02921-7.10177,4.85622-17.138-3.6005-23.46979-6.79054-11.91321-6.002-27.7003-15.93535-41.02319-8.96024-10.77667,5.642-18.83839,20.43264-32.73309,16.67756-11.66747-3.15316-20.23427-14.53288-33.06548-14.14573-13.74785.4148-24.85,18.03057-38.10331,6.623-5.10165-4.39114-9.07257-9.81163-15.62708-12.19225-5.37552-1.95241-10.94284-.79556-14.623,3.68078-2.23935,2.72384-3.35347,6.13545-4.632,9.36864-1.27475,3.22359-7.64175,12.96158-10.85858,6.32763-1.69169-3.48869,1.33269-8.62061,1.85282-12.2458a20.69641,20.69641,0,0,0-1.13243-10.11754,22.58556,22.58556,0,0,0-12.43462-13.05983,21.15128,21.15128,0,0,0-4.49077-1.19047c-.75695-.12737-3.76786-.13135-4.373-.69836l-.57919-3.00027q1.27314-.35771,2.57155-.60419a40.64639,40.64639,0,0,1,17.00858.37612v-4.82139l-.948.22554c-2.26347.53851-2.501,4.46206,0,4.8214C106.34631,156.96654,187.895,147.76045,268.855,153.497c3.211.22752,3.19668-4.7735,0-5Z"/>
    </g>
    <path class="cls-4" d="M19.321,108.11s-5.7978,10.96607,0,30.0124,223.124,32.32106,253.42208,11.54324c0,0,8.329-20.50975,0-31.32128"/>
    <path class="cls-5" d="M27.78528,105.5154s-6.36274,3.67605,0,8.19548S89.737,120.942,89.737,120.942s85.31953,14.39041,87.67693,0l88.97828.78287s4.91689.573,0-9.82173"/>
    <path class="cls-6" d="M166.56731,72.13213"/>
    <path class="cls-7" d="M23.598,89.306,2.964,102.86425S82.50592,109.6434,89.737,120.942c0,0,71.407-4.06749,87.67693,0s88.97828-9.03886,88.97828-9.03886l21.2958-6.38771L264.25884,89.306"/>
    <path class="cls-8" d="M143.63863,1.11019c-34.24674-1.373-72.373,9.83471-108.489,47.69533,0,0-20.49591,23.953-11.83715,42.48264,4.50484,9.64029,62.32563,17.69031,120.33044,18.804,58.00481-1.11371,115.82561-9.16373,120.33044-18.804,8.65876-18.52966-11.83715-42.48264-11.83715-42.48264C216.02029,10.9449,177.89405-.2628,143.64732,1.11019"/>
    <path class="cls-1" d="M33.09859,73.632a4.0465,4.0465,0,0,0,1.85934.82657c.71421-.04133.80248-1.69447,0-1.57048C34.95793,72.88813,35.23473,72.18555,33.09859,73.632Z"/>
    <path class="cls-1" d="M75.0966,88.21309A4.04645,4.04645,0,0,0,74.27,90.07244c.04133.7142,1.69446.80247,1.57048,0C75.84051,90.07244,76.54309,90.34924,75.0966,88.21309Z"/>
    <path class="cls-1" d="M125.89147,98.34577a4.04641,4.04641,0,0,0-.82656,1.85934c.04133.71421,1.69446.80248,1.57047,0C126.63538,100.20511,127.338,100.48191,125.89147,98.34577Z"/>
    <path class="cls-1" d="M130.15028,70.90465a4.0465,4.0465,0,0,0-.82657,1.85934c.04133.71421,1.69447.80248,1.57048,0C130.89419,72.764,131.59677,73.04079,130.15028,70.90465Z"/>
    <path class="cls-1" d="M196.09179,69.79407a4.04639,4.04639,0,0,0-.82657,1.85934c.04133.71421,1.69446.80248,1.57047,0C196.83569,71.65341,197.53828,71.93021,196.09179,69.79407Z"/>
    <path class="cls-1" d="M115.25443,83.34046a4.04653,4.04653,0,0,0-.21384-2.02353c-.3929-.59785-1.86869.15227-1.36007.78524C113.68052,82.10217,112.93366,82.21375,115.25443,83.34046Z"/>
    <path class="cls-1" d="M180.75566,95.24426a4.04645,4.04645,0,0,0,.82657-1.85935c-.04133-.71421-1.69446-.80247-1.57048,0C180.01175,93.38491,179.30917,93.10811,180.75566,95.24426Z"/>
    <path class="cls-1" d="M112.862,55.25929a4.04649,4.04649,0,0,0-2.02352.21384c-.59786.3929.15227,1.86869.78524,1.36008C111.62367,56.83321,111.73524,57.58006,112.862,55.25929Z"/>
    <path class="cls-1" d="M83.58472,62.19233s1.32419-.55777,1.6455-1.197-1.06621-1.54219-1.36007-.78523C83.87015,60.21014,83.4001,59.61913,83.58472,62.19233Z"/>
    <path class="cls-1" d="M219.08021,65.92111a4.04641,4.04641,0,0,0-2.02352.21385c-.59786.39289.15227,1.86868.78524,1.36007C217.84193,67.495,217.9535,68.24188,219.08021,65.92111Z"/>
    <path class="cls-1" d="M207.98071,82.20538s-1.32419.55777-1.6455,1.197,1.06621,1.5422,1.36007.78524C207.69528,84.18757,208.16533,84.77858,207.98071,82.20538Z"/>
    <path class="cls-1" d="M137.05961,29.934s.55777,1.32419,1.197,1.6455,1.54219-1.06621.78523-1.36007C139.0418,30.21939,139.63281,29.74934,137.05961,29.934Z"/>
    <path class="cls-1" d="M189.56969,57.11818a4.04645,4.04645,0,0,0-.82657,1.85935c.04133.71421,1.69446.80247,1.57048,0C190.3136,58.97753,191.01618,59.25433,189.56969,57.11818Z"/>
    <path class="cls-1" d="M82.71347,32.79118s1.32419-.55777,1.6455-1.197S83.29276,30.052,82.9989,30.809C82.9989,30.809,82.52885,30.218,82.71347,32.79118Z"/>
    <path class="cls-1" d="M249.37345,77.35944a4.04641,4.04641,0,0,0,.21385,2.02352c.3929.59786,1.86868-.15226,1.36007-.78524C250.94737,78.59772,251.69423,78.48615,249.37345,77.35944Z"/>
    <path class="cls-1" d="M56.076,44.5768a4.04641,4.04641,0,0,0-1.85934-.82656c-.71421.04132-.80248,1.69446,0,1.57047C54.21664,45.32071,53.93984,46.02329,56.076,44.5768Z"/>
    <path class="cls-1" d="M173.39642,75.37454a4.04647,4.04647,0,0,0,1.85934.82656c.71421-.04133.80248-1.69446,0-1.57047C175.25576,74.63063,175.53256,73.92805,173.39642,75.37454Z"/>
    <path class="cls-1" d="M98.45636,97.13147a4.04645,4.04645,0,0,0-.82657,1.85935c.04133.71421,1.69446.80247,1.57048,0C99.20027,98.99082,99.90285,99.26762,98.45636,97.13147Z"/>
    <path class="cls-1" d="M75.13985,74.15848s-.55777-1.32419-1.197-1.6455-1.54219,1.0662-.78524,1.36007C73.15765,73.87305,72.56665,74.3431,75.13985,74.15848Z"/>
    <path class="cls-1" d="M156.20756,44.52891a4.04646,4.04646,0,0,0-.82656,1.85935c.04132.71421,1.69446.80247,1.57047,0C156.95147,46.38826,157.65405,46.66506,156.20756,44.52891Z"/>
    <path class="cls-1" d="M217.95909,45.26466a4.04641,4.04641,0,0,0,2.02352-.21385c.59786-.39289-.15226-1.86868-.78523-1.36007C219.19738,43.69074,219.0858,42.94389,217.95909,45.26466Z"/>
    <path class="cls-1" d="M158.6794,16.40411a4.04645,4.04645,0,0,0-1.85935-.82657c-.71421.04133-.80247,1.69446,0,1.57048C156.82005,17.148,156.54325,17.8506,158.6794,16.40411Z"/>
    <path class="cls-1" d="M124.72043,15.27632a4.04646,4.04646,0,0,0,1.85935.82656c.71421-.04132.80247-1.69446,0-1.57047C126.57978,14.53241,126.85658,13.82983,124.72043,15.27632Z"/>
    <path class="cls-1" d="M186.11846,31.15378s-.55777-1.32419-1.19695-1.6455-1.5422,1.06621-.78524,1.36007C184.13627,30.86835,183.54526,31.33841,186.11846,31.15378Z"/>
    <path class="cls-1" d="M174.61071,56.47358a4.04641,4.04641,0,0,0-2.02352.21385c-.59786.39289.15226,1.86868.78523,1.36007C173.37242,58.0475,173.484,58.79435,174.61071,56.47358Z"/>
    <path class="cls-1" d="M154.47692,97.13147a4.04645,4.04645,0,0,0-.82657,1.85935c.04133.71421,1.69446.80247,1.57048,0C155.22083,98.99082,155.92341,99.26762,154.47692,97.13147Z"/>
    <path class="cls-1" d="M53.94719,88.09167a4.04655,4.04655,0,0,0-.82657,1.85935c.04133.71421,1.69447.80247,1.57048,0C54.6911,89.951,55.39368,90.22782,53.94719,88.09167Z"/>
    <path class="cls-1" d="M127.634,49.63082a4.04641,4.04641,0,0,0-.82656,1.85934c.04132.71421,1.69446.80248,1.57047,0C128.37788,51.49016,129.08046,51.767,127.634,49.63082Z"/>
    <path class="cls-1" d="M180.66944,11.73125s-1.32419.55777-1.6455,1.197,1.06621,1.54219,1.36007.78524C180.384,13.71345,180.85406,14.30445,180.66944,11.73125Z"/>
    <path class="cls-1" d="M110.391,22.36076s1.32419-.55777,1.6455-1.19695-1.06621-1.5422-1.36007-.78524C110.67646,20.37857,110.20641,19.78756,110.391,22.36076Z"/>
    <path class="cls-1" d="M231.53119,88.90288a4.04645,4.04645,0,0,0-.82657,1.85935c.04133.7142,1.69446.80247,1.57048,0C232.2751,90.76223,232.97768,91.039,231.53119,88.90288Z"/>
    <path class="cls-1" d="M204.3477,46.86433a4.04645,4.04645,0,0,0-.21385-2.02353c-.39289-.59786-1.86868.15227-1.36007.78524C202.77378,45.626,202.02693,45.73762,204.3477,46.86433Z"/>
    <path class="cls-1" d="M151.02359,66.70565s-.55777-1.32419-1.197-1.6455-1.54219,1.0662-.78524,1.36007C149.04139,66.42022,148.45039,66.89027,151.02359,66.70565Z"/>
    <path class="cls-1" d="M101.91169,39.31533a4.04646,4.04646,0,0,0,.82656-1.85935c-.04132-.71421-1.69446-.80247-1.57047,0C101.16778,37.456,100.4652,37.17918,101.91169,39.31533Z"/>
    <path class="cls-1" d="M100.44409,72.70182s-.55777-1.32419-1.197-1.6455-1.54219,1.06621-.78523,1.36007C98.4619,72.41639,97.87089,72.88644,100.44409,72.70182Z"/>
    <path class="cls-1" d="M247.71194,56.47358s-.55777-1.32419-1.197-1.6455-1.54219,1.06621-.78524,1.36007C245.72974,56.18815,245.13874,56.65821,247.71194,56.47358Z"/>
    <path class="cls-1" d="M207.11475,29.10505a4.04649,4.04649,0,0,0-.21384-2.02352c-.3929-.59786-1.86869.15226-1.36008.78523C205.54083,27.86676,204.794,27.97834,207.11475,29.10505Z"/>
    <path class="cls-1" d="M94.87845,13.37417a4.0464,4.0464,0,0,0-2.02352.21385c-.59786.39289.15226,1.86868.78523,1.36007C93.64016,14.94809,93.75174,15.69494,94.87845,13.37417Z"/>
    <path class="cls-1" d="M164.66608,32.36255a4.04645,4.04645,0,0,0,2.02353-.21385c.59786-.3929-.15227-1.86868-.78524-1.36007C165.90437,30.78863,165.79279,30.04177,164.66608,32.36255Z"/>
    <path class="cls-1" d="M138.47091,88.21309a4.04645,4.04645,0,0,0-.82657,1.85935c.04133.7142,1.69446.80247,1.57047,0C139.21481,90.07244,139.9174,90.34924,138.47091,88.21309Z"/>
    <path class="cls-1" d="M71.98108,46.4058a4.04639,4.04639,0,0,0,1.85934.82657c.71421-.04133.80248-1.69446,0-1.57048C73.84042,45.66189,74.11722,44.95931,71.98108,46.4058Z"/>
    <path class="cls-1" d="M57.14922,62.90308s-.55777-1.32419-1.197-1.6455-1.54219,1.06621-.78524,1.36007C55.167,62.61765,54.576,63.0877,57.14922,62.90308Z"/>
  </g>
</svg>
