<svg id="Layer_1" data-name="Layer 1" xmlns="http://www.w3.org/2000/svg" viewBox="0 0 150 150"><defs><style>.cls-1{fill:#fff;}.cls-1,.cls-2{stroke:#231f20;}.cls-1,.cls-2,.cls-3,.cls-4{stroke-miterlimit:10;stroke-width:3px;}.cls-2{fill:#8b5e3c;}.cls-3,.cls-6{fill:#3c2415;}.cls-3{stroke:#3c2415;}.cls-4{fill:#57320d;stroke:#57320d;}.cls-5{fill:#603913;}</style></defs><title>nutella</title><rect class="cls-1" x="18.93" y="2.88" width="111.33" height="27.33" rx="5.66"/><path class="cls-2" d="M133.14,147.12H16.86c-6.38,0-11.55-5.73-11.55-12.8V58C5.31,51,23.72,30.59,30.1,30.59l89.47-.37C126,30.22,144.69,51,144.69,58v76.29C144.69,141.39,139.52,147.12,133.14,147.12Z"/><rect class="cls-3" x="78.41" y="56.46" width="37.45" height="79.29" transform="translate(88.47 -40.27) rotate(41.67)"/><rect class="cls-4" x="103.46" y="62.33" width="8.67" height="17.74" transform="translate(74.61 -53.65) rotate(41.67)"/><rect class="cls-4" x="115.65" y="74.51" width="8.67" height="17.74" transform="translate(85.79 -58.68) rotate(41.67)"/><rect class="cls-4" x="86.86" y="80.98" width="8.67" height="17.74" transform="translate(82.8 -37.9) rotate(41.67)"/><rect class="cls-4" x="99.35" y="92.83" width="8.67" height="17.74" transform="translate(93.84 -43.2) rotate(41.67)"/><rect class="cls-4" x="70.27" y="99.62" width="8.67" height="17.74" transform="translate(91 -22.15) rotate(41.67)"/><rect class="cls-4" x="83.12" y="111.07" width="8.67" height="17.74" transform="translate(101.86 -27.8) rotate(41.67)"/><path class="cls-5" d="M47.75,65.15c7.78,3.48,15.7,7,22.15,12.67,3.78,3.3,7.1,7.53,7.9,12.48s-1.14,10.18-4.26,14.11-7.32,6.83-11.58,9.46c-6.22,3.83-13.52,7.32-20.63,5.36-5.82-1.6-10.34-6.78-12.13-12.62s-1.09-12.18.93-17.86c1.65-4.62,4.13-8.88,5.84-13.47s2.61-9.78,1-14.46l8.59,4.27"/><path class="cls-5" d="M46.48,67.31c9.92,4.43,24.73,10.07,28.37,21.48,4.15,13-12.43,23.67-22.74,27.25-15.27,5.31-23.88-9.69-20.61-23.15,2.72-11.23,11.38-20.55,7.84-32.74L35.67,63l8.59,4.27c2.87,1.43,5.41-2.89,2.52-4.32l-8.59-4.27c-1.87-.93-4.31.62-3.67,2.82,2.63,9-3,16.84-6.15,24.89-2.77,7-3.8,15-1.12,22.24,4.87,13.07,18,16.24,30,10.71,11.14-5.17,25.56-15.51,23-29.69S60.65,68.2,49,63c-2.91-1.3-5.46,3-2.53,4.32Z"/><path class="cls-6" d="M40.09,66.75c5.5,5.33,6.83,15.71,9.57,22.69a191,191,0,0,0,9.71,20.81c1.15,2.12,4.39.23,3.24-1.89a181.36,181.36,0,0,1-11.23-25C49,76.86,47.91,69.11,42.74,64.09c-1.73-1.68-4.38,1-2.65,2.66Z"/><path class="cls-6" d="M36.86,75.3a169.69,169.69,0,0,0,10.27,36.17c.9,2.2,4.53,1.24,3.62-1A169.63,169.63,0,0,1,40.47,74.31c-.39-2.38-4-1.37-3.61,1Z"/><path class="cls-6" d="M31.3,88.14a44.46,44.46,0,0,0,2.63,25.36c.91,2.2,4.54,1.24,3.61-1a41,41,0,0,1-2.62-23.37c.42-2.36-3.19-3.37-3.62-1Z"/><path class="cls-6" d="M47.42,69.24c4,12.13,14.52,20.68,18,33,.67,2.32,4.29,1.33,3.62-1C65.53,88.87,55,80.35,51,68.25c-.75-2.29-4.37-1.31-3.62,1Z"/><path class="cls-6" d="M58.06,75.24c3.5,6.93,14.35,12.68,12.23,21.43-.57,2.34,3,3.34,3.61,1,2.61-10.75-8.43-16-12.6-24.33-1.08-2.15-4.32-.26-3.24,1.9Z"/></svg>