<svg id="Layer_1" data-name="Layer 1" xmlns="http://www.w3.org/2000/svg" viewBox="0 0 150 150"><defs><style>.cls-1{fill:#be1e2d;}.cls-2{fill:#fff;}.cls-3{fill:#8dc63f;}.cls-4{fill:#8b5e3c;}</style></defs><title>strawberry</title><path class="cls-1" d="M43,50.91C47.54,44,54.88,39.84,62.4,38s15.3-1.65,23-1.44c8,.23,16.67.65,23.17,5.93,8.77,7.13,10.81,20.73,10.27,32.78a117.17,117.17,0,0,1-6.46,33.49c-3.13,8.89-8,17.95-16,21.35-5.71,2.41-12.14,1.53-18-.42C53,121.24,34.82,91.5,37.13,62.19c.37-4.69,1.37-9.68,4.52-12.83"/><path class="cls-1" d="M45.19,52.17C50.77,44.11,59.9,40.33,69.4,39.31a98.22,98.22,0,0,1,26.75.6C115.69,43.4,117.46,64.39,116,80.68a111.86,111.86,0,0,1-6.51,28.82c-2.92,7.78-7.54,16.58-16.14,19S75,126.43,68,121.88a59.32,59.32,0,0,1-16.51-16.34A70,70,0,0,1,40.85,80.73c-1.83-8.55-3.66-22.45,2.57-29.6,2.1-2.41-1.42-6-3.54-3.53-6.41,7.36-6,18.81-4.92,28a74,74,0,0,0,8.79,27c8.68,15.62,25.54,31.31,44.5,31.55,22.15.28,29.12-28.38,31.75-45.55s3.6-42.91-15.4-51.31c-5.07-2.24-10.68-2.8-16.16-3a131.51,131.51,0,0,0-19,.14C58,35.48,47.54,40,40.87,49.64c-1.84,2.66,2.5,5.16,4.32,2.53Z"/><path class="cls-2" d="M84.65,116.61a1.25,1.25,0,0,0,0-2.5,1.25,1.25,0,0,0,0,2.5Z"/><path class="cls-2" d="M96,91.36a1.25,1.25,0,0,0,0-2.5,1.25,1.25,0,0,0,0,2.5Z"/><path class="cls-2" d="M89.7,53.49a1.25,1.25,0,0,0,0-2.5,1.25,1.25,0,0,0,0,2.5Z"/><path class="cls-2" d="M103.6,64.71a1.25,1.25,0,0,0,0-2.5,1.25,1.25,0,0,0,0,2.5Z"/><path class="cls-2" d="M72,74.53A1.25,1.25,0,0,0,72,72a1.25,1.25,0,0,0,0,2.5Z"/><path class="cls-2" d="M106.12,77.34a1.25,1.25,0,0,0,0-2.5,1.25,1.25,0,0,0,0,2.5Z"/><path class="cls-3" d="M54.31,33.88a24.66,24.66,0,0,1-21.75-7.14c-1.72-1.76-3.31-4.62-2-6.78,1.46-2.4,4.8-1.35,7.13-.06l16.76,9.27A50.89,50.89,0,0,0,67.27,7.08c3.28-.28,5.81,3.69,5.74,7.34s-1.93,6.93-3.73,10c1.44,2.2,4.46,2.44,6.67,1.27s3.8-3.38,5.31-5.52L88.83,9.42a69.53,69.53,0,0,1,.11,23.25c1.75.35,3.13-1.55,4.07-3.22L105.22,7.87a25.81,25.81,0,0,1-4.14,18.94C95.29,35,85.29,38,75.93,38.43s-18.79-1.22-28.1-.08a50.92,50.92,0,0,1,.87-11.5"/><path class="cls-3" d="M54,32.67c-6.54,1-17.81-1-21.22-7.72q-2.58-2.44,2.42-4.82a18.39,18.39,0,0,1,2.72,1.31c1.7.88,3.35,1.86,5,2.78l10.89,6a1.27,1.27,0,0,0,1.51-.19A53.22,53.22,0,0,0,65.51,15.39C66.68,12.87,68.24,4.52,71.4,12,73,15.86,70,20.65,68.21,23.78a1.27,1.27,0,0,0,.19,1.51c8.19,9.19,18-10.34,21.51-15.24l-2.29-.3a72.46,72.46,0,0,1,.12,22.58c-.11.72.31,1.67,1.2,1.59,4.2-.41,5.63-4.69,7.5-8q4.92-8.71,9.86-17.43L104,8.2c1.9,13.45-6.39,24.38-19.25,27.69C72.7,39,60.08,35.84,47.83,37.1l1.25,1.25a57.35,57.35,0,0,1,.83-11.17c.27-1.57-2.14-2.24-2.41-.66a61.64,61.64,0,0,0-.92,11.83,1.26,1.26,0,0,0,1.25,1.25c14.39-1.48,29.58,2.86,43.3-3.28,11.4-5.11,17-16.59,15.3-28.78-.16-1.1-1.8-1.16-2.29-.3L97.57,18.86c-1.63,2.88-5.14,12.22-8.63,12.56L90.15,33A76.76,76.76,0,0,0,90,9.08C89.84,7.92,88.3,8,87.75,8.79c-2.82,4-5.5,8.15-8.49,12-1,1.29-3.06,3.93-4.8,4.12l-3.33-1.22.75-1.36c.27-1.73,1.66-3.54,2-5.31C75,12.11,72.86,6.23,67.27,5.83a1.27,1.27,0,0,0-1.21.92,53.66,53.66,0,0,1-6.22,13.76c-1.22,1.89-2.73,4.82-4.65,6.06s-4-.64-6-1.72c-4-2.22-8-4.93-12.24-6.69-2-.83-4.54-1.44-6.43,0-4.6,3.48.76,9.43,3.67,11.71a26.22,26.22,0,0,0,20.43,5.22c1.59-.23.91-2.64-.66-2.41Z"/><path class="cls-4" d="M36.52,84c7-4.91,14.68-10,23.21-9.68,3.4.14,6.74,1.17,10.14,1.13,4.15-.06,8.09-1.7,12-3.1a113.56,113.56,0,0,1,31.42-6.42,9.24,9.24,0,0,1,3.59.28c4.08,1.42,4.32,7,3.67,11.32a216.42,216.42,0,0,1-9.62,38.76c-2.63,7.5-6.44,15.65-13.9,18.38a21.65,21.65,0,0,1-8.32,1c-13.1-.49-25.58-6.94-34.69-16.36S39,97.7,35.78,85"/><path class="cls-4" d="M37.78,86.13c6.51-4.54,13.65-9.57,21.95-9.33,3.41.1,6.72,1.17,10.14,1.13A32.36,32.36,0,0,0,80,75.66a128.72,128.72,0,0,1,22.66-6.09c3.55-.57,12.29-2.74,14.78.42,2,2.55.55,7.85.08,10.61a213.85,213.85,0,0,1-5.27,23.2c-2,7.07-4,14.65-7.88,21C95.81,139,76.27,132.62,65,125.2c-14.18-9.31-22.53-24.81-26.79-40.85-.82-3.11-5.65-1.79-4.82,1.33,4.34,16.32,12.68,31.87,26.5,42,11,8.11,31.55,16.25,43.63,5.95,5.75-4.9,8.44-12.49,10.77-19.44A217.05,217.05,0,0,0,122,83.81c1-5.51,3.11-13.67-1.52-18.23-2.49-2.45-5.88-2.27-9.11-2a112.87,112.87,0,0,0-15.64,2.25,129,129,0,0,0-16.24,4.74,35.68,35.68,0,0,1-8.24,2.25c-3.13.31-6.1-.39-9.2-.75-10.2-1.2-18.8,4.17-26.84,9.79-2.61,1.83-.12,6.16,2.53,4.31Z"/><path class="cls-2" d="M56.45,67.14a1.25,1.25,0,0,0,0-2.5,1.25,1.25,0,0,0,0,2.5Z"/><path class="cls-2" d="M73,56.05a1.25,1.25,0,0,0,0-2.5,1.25,1.25,0,0,0,0,2.5Z"/><path class="cls-2" d="M105.34,48a1.25,1.25,0,0,0,0-2.5,1.25,1.25,0,0,0,0,2.5Z"/><path class="cls-2" d="M54.37,53.63a1.25,1.25,0,0,0,0-2.5,1.25,1.25,0,0,0,0,2.5Z"/><path class="cls-2" d="M85.12,43.11a1.25,1.25,0,0,0,0-2.5,1.25,1.25,0,0,0,0,2.5Z"/><path class="cls-2" d="M40.62,64.14a1.25,1.25,0,0,0,0-2.5,1.25,1.25,0,0,0,0,2.5Z"/><path class="cls-2" d="M82.69,65a1.25,1.25,0,0,0,0-2.5,1.25,1.25,0,0,0,0,2.5Z"/><path class="cls-2" d="M64.08,47.16a1.25,1.25,0,0,0,0-2.5,1.25,1.25,0,0,0,0,2.5Z"/><path class="cls-1" d="M51,38.3a21.48,21.48,0,0,0-11.5,9.8c-1.55,2.83,2.77,5.35,4.32,2.53a16.19,16.19,0,0,1,8.5-7.51C55.3,42,54,37.17,51,38.3Z"/><path class="cls-3" d="M55.21,38.36c-5.78.8-12,.76-17.08-2.06s-8.65-9.11-6.75-14.63"/><path class="cls-3" d="M55.21,37.11c-5.09.63-10.37.82-15.15-1.32C34.72,33.4,31,27.92,32.59,22a1.25,1.25,0,0,0-2.41-.66,13.9,13.9,0,0,0,5,14.4c5.57,4.62,13.26,4.71,20.07,3.87,1.58-.19,1.6-2.69,0-2.5Z"/></svg>