<svg id="Layer_1" data-name="Layer 1" xmlns="http://www.w3.org/2000/svg" viewBox="0 0 300 300"><defs><style>.cls-1{fill:#fff0e0;stroke:#c49a6c;stroke-miterlimit:10;stroke-width:9px;}.cls-2{fill:#8b5e3c;}</style></defs><title>toast</title><path class="cls-1" d="M260.34,275.9H45.64c-9,0-16.32-8.95-16.32-20l3.33-154L29.32,67.22c0-11,15-25.73,24-25.73l69.33,5.75H260.34c9,0,16.31,8.95,16.31,20l-6,33.92,6,154.78C276.65,267,269.35,275.9,260.34,275.9Z"/><path class="cls-1" d="M274.88,56.5S267.45,44.31,262.81,41C246.53,29.47,204.4,21.24,155,21.24c-50.1,0-92.71,8.45-108.48,20.25a123.79,123.79,0,0,0-10.76,9.88"/><path class="cls-2" d="M54.52,88c5.25-24.26,23-41.84,41-40.48,9.32.7,18.41,5.94,27.72,4.88,9.49-1.07,18-8.55,27.23-11.78a31.85,31.85,0,0,1,23.92,1.16c7.91,3.6,15,10.33,23.08,13.16,6.79,2.39,13.92,1.89,20.85,3.25s14.2,5.17,18,13.53c2.59,5.76,3.12,12.83,4.3,19.45,3.13,17.63,11.07,33,13.84,50.79,1.27,8.15,1.41,16.56,1.54,24.9l.67,41.88c.12,7.53.13,15.62-2.88,21.83-2.31,4.76-6.06,7.67-9.74,10.2-28.31,19.43-60.9,26.14-92,18.95-10.08-2.34-20-6.11-30.25-6.61-13.22-.64-26.73,4.17-39.52-.58-5.8-2.16-11.16-6.2-16.34-10.49-6.93-5.74-13.88-12.3-18.08-22-8.32-19.11-3.58-44,3.07-64.41,2-6.19,4.23-12.46,4.68-19.25.51-7.81-1.36-15.48-2.33-23.2a101.4,101.4,0,0,1,.33-27.35"/><path class="cls-2" d="M56.93,88.71c4-17.64,17.55-40.23,38.56-38.65,11.29.85,21.27,7.33,32.81,3.85C139,50.68,147.51,42.18,159,41.43c13.83-.91,22.63,9,34.2,14.48,9.88,4.66,21.42,2.14,31.13,6.93,11.95,5.89,11.89,19.39,14.13,30.79S245,116,248.35,127.2c3.78,12.77,4.83,25.48,5.06,38.74q.33,20.43.65,40.85c.09,6.13.5,12.61-1.12,18.58-1.71,6.31-5.72,10.22-11,13.78a123.26,123.26,0,0,1-33,16,110.43,110.43,0,0,1-33.86,4.92c-12.68-.18-24.43-3.3-36.61-6.47a82.64,82.64,0,0,0-16.72-2.94c-6.06-.3-12.09.56-18.11,1.1-6.34.56-12.83.88-19-1-6.87-2.09-12.74-6.84-18.14-11.4-10.15-8.6-17.56-18.61-19.8-32s0-27.07,3.33-39.94c3.22-12.38,8.85-24.2,8-37.26-.46-6.9-2.06-13.66-2.66-20.55A101.56,101.56,0,0,1,56,86.57c.45-3.15-4.37-4.51-4.82-1.33-1.89,13.45-.57,26,1.26,39.35a52.65,52.65,0,0,1-1.25,21.92c-1.83,6.58-4.23,13-6,19.59-6,22.9-7.8,49.28,8.85,68.24,7.2,8.19,17.16,16.85,27.51,20.64,13.1,4.8,26.76,0,40.18.67,13.66.68,26.57,6.61,40.1,8.42a113.29,113.29,0,0,0,37-1.23,123.06,123.06,0,0,0,35.75-13.29c9.36-5.22,19.74-11.11,22.91-22.06,1.59-5.48,1.63-11.3,1.58-17-.06-7.9-.24-15.79-.37-23.68-.23-14.48.32-29.26-1.68-43.63-1.86-13.45-6.94-26-10.77-39a142.72,142.72,0,0,1-4.14-18.74c-1-6.09-1.88-12.46-5.21-17.79-5.53-8.86-14.88-11.84-24.75-12.83-7.23-.73-13.7-1.53-20.1-5.24-5.56-3.22-10.61-7.3-16.46-10-13.37-6.14-25.68-2.28-37.86,4.38-7.06,3.85-13.79,7-22.06,5.56-6.28-1.12-12.22-3.63-18.58-4.38-24-2.83-40.34,21.7-45,42.15-.72,3.13,4.1,4.47,4.82,1.33Z"/><path class="cls-2" d="M57.39,93.07c-2.24-7.75-4.08-15.66,2-22.21,4.68-5.09,10.92-9,16.38-13.17,1.78-1.36,1.49-4.79-1.26-4.66C56.69,53.85,48.38,71,46.31,86.54c-2.73,20.57,1.61,41.22,5.87,61.26.57,2.71,5.27,2.16,4.91-.66a76.85,76.85,0,0,0-3.36-15.08c-1.86-5.42-4.79-10.38-6.67-15.78C43.15,105.07,48.89,95.17,57.34,88l-4.27-1.77a97.75,97.75,0,0,1-1.13,29l3.67-1.49c-5.88-3.13-5.26-10.31-3.62-15.79,1.68-5.63,3.64-10.83,4.42-16.69s1.28-11.73,4.49-16.81a28.5,28.5,0,0,1,11-9.88c21.68-11.43,45,1.95,63.65,13.14,2.77,1.66,5.29-2.66,2.53-4.31C116.66,50.43,88.42,35.83,65,53A30.86,30.86,0,0,0,55,64.7c-3,6.36-2.84,13.35-4.22,20.1-2.13,10.42-11,26.12,2.28,33.17a2.52,2.52,0,0,0,3.67-1.49,102.35,102.35,0,0,0,1.31-30.3,2.54,2.54,0,0,0-4.27-1.77c-7.48,6.4-13.77,15.53-13.13,25.8.34,5.5,2.73,10.43,5,15.35a73.8,73.8,0,0,1,6.43,21.58l4.91-.66c-3.59-16.93-7.25-34.12-6.44-51.52.69-14.77,5.56-36.08,23.9-36.93L73.2,53.37c-6.59,5.06-14.9,9.89-19.73,16.82-5.14,7.37-3.22,16.19-.9,24.21.9,3.09,5.72,1.77,4.82-1.33Z"/><path class="cls-2" d="M225.44,81.18C238,87.67,251,95,254.27,109.94c3.08,14-.53,28.6,2.72,42.68.73,3.14,5.55,1.81,4.82-1.32-3.58-15.51,1.46-32.12-4.05-47.29C252.83,90.4,240.15,83.16,228,76.86c-2.85-1.47-5.38,2.84-2.52,4.32Z"/><path class="cls-2" d="M237.85,96.05c21.43,20.16,25.84,51.44,13,77.43l4.57,1.92a330.28,330.28,0,0,0,5.55-41.68c.5-7.36.74-14.75.73-22.13,0-5.28.59-11.64-2.36-16.33-5.19-8.22-15.52-4.06-16.94,4.52-.94,5.7,1.18,12.26,2.51,17.75,1.77,7.31,3.94,14.52,6.1,21.72a2.51,2.51,0,0,0,4.91-.67,173.72,173.72,0,0,0-14.55-70.51l-2.82,3.68c4.84,2,8.48,5.78,12,9.54,3.77,4,7.82,8.28,8.54,14,.67,5.37-.7,11.1-1.39,16.42l-2.28,17.47,4.91-.66c-4.11-13,.19-27.23-5.53-39.9-4.94-10.92-15.12-18.25-25.15-24.16v4.32c6.83-3.07,14.21.48,18.78,5.74a38.35,38.35,0,0,1,5.17,8.07c1.52,3,4.74,8.48,3.1,12H261c-3.33-5-4.29-11.94-10.21-14.79-4-1.94-8.21-1.29-10.9,2.33-1.61,2.17,1.41,4.44,3.42,3.42,4.26-2.17,6.32,3.89,6.63,6.77.29,2.72.19,5.53.25,8.26l.34,16.61,4.92-.66q-5.81-19.69-9.79-39.82c-.63-3.17-5.41-1.82-4.83,1.33a311.71,311.71,0,0,0,8.79,35.62,2.51,2.51,0,0,0,4.91-.67c.68-12.16.34-25.29-10.5-33l-.6,4.56c2.46-.37,6.08,8.78,6.89,10.59A67.61,67.61,0,0,1,255,134.46l3.67-1.49a6.93,6.93,0,0,1-2.45-10.11l-4.66-1.26a224.49,224.49,0,0,1-1.81,27.67c-.41,3.18,4.6,3.15,5,0a224.49,224.49,0,0,0,1.81-27.67,2.52,2.52,0,0,0-4.66-1.26,12,12,0,0,0,4.25,16.94c1.29.73,3.38.14,3.67-1.49a73.55,73.55,0,0,0-1.95-34.69,68.42,68.42,0,0,0-7.15-15.95c-2.12-3.4-4.34-6.08-8.62-5.43-2.35.36-2.13,3.48-.59,4.57,9.15,6.54,8.58,18.72,8,28.72l4.91-.66a309.58,309.58,0,0,1-8.78-35.62l-4.83,1.33q4,20.13,9.79,39.82c.79,2.65,5,2.21,4.91-.67l-.32-15.63c-.1-4.56.32-9.6-1.16-14-1.91-5.65-7.63-9.22-13.26-6.35l3.42,3.42c4.71-6.33,11.09,10.38,12.47,12.46.94,1.43,3.48,1.82,4.32,0C264.76,89,257.23,77,251.93,71c-6.25-7.13-15.94-10.51-24.84-6.52-1.77.79-1.48,3.44,0,4.32C237,74.64,247.44,82,251.29,93.42c4,11.73.43,24.56,4.18,36.42.9,2.86,4.56,2,4.91-.66l2.78-21.36c.82-6.24,2-12.57-.58-18.56-2.13-4.88-6-8.86-9.64-12.67-3.86-4.07-7.9-7.47-13.1-9.66-2.28-1-3.57,2-2.82,3.67a167.83,167.83,0,0,1,13.86,68l4.91-.66c-2.88-9.59-5.83-19.21-7.72-29-.58-3-1.54-6.52-.52-9.53,1.14-3.38,4.66-5.3,7.43-1.55s1.69,11.28,1.68,15.73a319.74,319.74,0,0,1-6.1,60.55c-.52,2.61,3.23,4.63,4.57,1.93,13.85-28,9.38-61.73-13.75-83.48-2.34-2.2-5.88,1.32-3.53,3.53Z"/><path class="cls-2" d="M240.59,102.18c4.56-1.17,9.22-5.09,8.34-10.29-.76-4.5-5.9-8-10.12-5.34s-4.32,8.94-1.57,12.64a7.21,7.21,0,0,0,11.78,0c1-1.36-.07-3.24-1.49-3.67-2.55-.77-5.09-1.6-7.6-2.5-.13,0-1.44-.39-1.31-.26s-.28-.23.19-.27a8.13,8.13,0,0,1,3.67.79l-1.75-1.74a2.44,2.44,0,0,1-2.08,2.59c-3.13.74-1.81,5.56,1.33,4.82a7.49,7.49,0,0,0,5.57-8.74,2.5,2.5,0,0,0-1.74-1.75c-2.32-.9-5.07-1.64-7.41-.34A5.6,5.6,0,0,0,233.52,93c.07,2.38,1.86,3.65,3.9,4.44,2.87,1.1,5.83,2,8.78,2.92l-1.5-3.67c-1.13,1.58-3.25.14-3.87-1.11s-.89-4.41.92-4.9,2.52,2.1,2.12,3.31c-.64,1.93-2.79,2.93-4.6,3.4-3.12.81-1.8,5.63,1.32,4.82Z"/></svg>